<svg version="1.0" xmlns="http://www.w3.org/2000/svg"
 width="300.000000pt" height="230.000000pt" viewBox="0 0 300.000000 157.000000"
 preserveAspectRatio="xMidYMid meet">
<g transform="translate(75.000000, 118.0000) scale(0.0500000,-0.0500000)"
fill="#af8b10" stroke="none">
<path d="M868 1531 c-111 -36 -328 -165 -488 -290 -115 -89 -266 -243 -319
-325 -90 -138 -64 -215 143 -422 170 -169 352 -301 567 -409 127 -65 243 -81
350 -49 64 19 202 87 299 148 l69 43 -68 47 -69 47 -74 -37 c-163 -82 -266
-102 -373 -73 -129 35 -354 173 -485 296 -141 133 -206 230 -197 295 18 138
285 389 538 507 201 95 295 94 500 -5 l97 -47 61 43 c34 24 61 46 61 49 0 10
-165 105 -265 153 -85 40 -95 43 -190 45 -76 2 -113 -1 -157 -16z m260 -32
c63 -25 199 -94 240 -122 l45 -30 -23 -19 c-29 -23 -39 -23 -102 6 -175 80
-232 93 -337 77 -218 -34 -520 -231 -689 -448 -55 -72 -76 -129 -70 -196 4
-45 13 -66 50 -118 111 -154 271 -289 473 -395 229 -121 334 -124 548 -18 82
40 96 42 126 10 l23 -24 -69 -40 c-164 -95 -238 -122 -338 -122 -83 0 -139 17
-245 73 -213 114 -369 226 -521 377 -113 112 -173 192 -190 253 -16 61 31 137
181 288 212 214 514 414 690 455 59 14 162 11 208 -7z"></path>
<path d="M1829 1526 c-60 -21 -195 -92 -292 -153 l-38 -24 61 -44 c33 -25 62
-45 65 -45 3 0 48 20 99 45 206 99 304 99 508 1 143 -69 243 -140 363 -261
176 -175 203 -253 129 -364 -57 -84 -207 -228 -312 -299 -51 -35 -145 -89
-209 -120 -107 -51 -124 -56 -200 -60 -96 -5 -141 7 -279 75 l-91 45 -67 -48
-66 -48 62 -39 c100 -64 259 -142 316 -155 120 -27 212 -11 361 65 275 141
574 386 691 568 60 92 62 143 10 229 -70 119 -283 320 -469 445 -121 82 -274
165 -348 190 -88 30 -206 28 -294 -3z m235 -21 c107 -23 312 -137 499 -278
105 -79 285 -259 333 -332 75 -116 47 -189 -148 -382 -169 -167 -352 -297
-568 -402 -94 -46 -95 -46 -202 -46 l-106 0 -124 63 c-68 34 -134 71 -148 81
-24 19 -24 20 -6 40 26 29 41 27 147 -22 181 -84 280 -88 441 -18 310 136 618
424 618 579 0 124 -209 357 -443 494 -269 157 -422 170 -649 57 -67 -34 -89
-36 -112 -10 -16 18 -16 20 9 39 48 38 250 133 300 141 73 12 83 12 159 -4z">
</path><path d="M1192 1093 c-120 -119 -155 -161 -181 -215 -27 -54 -33 -75 
-28 -107 11 -82 118 -220 281 -362 l89 -77 69 46 69 46 -33 24 c-57 43 -181 
174 -222 235 -75 110 -48 185 131 365 62 63 113 115 113 117 0 8 -111 75 -125 
75 -9 0 -82 -66 -163 -147z m212 75 c9 -15 0 -28 -55 -80 -162 -155 -217 -272 
-174 -374 19 -45 95 -141 174 -219 34 -33 61 -64 61 -70 0 -7 -11 -18 -25 -25 -36
-19 -59 -4 -184 121 -131 131 -184 215 -178 277 7 63 62 139 200 275 97 96
124 118 145 115 14 -2 30 -11 36 -20z"></path>
<path d="M1560 1204 c-30 -21 -57 -39 -59 -41 -3 -2 6 -11 20 -20 52 -36 172
-160 216 -225 37 -54 47 -78 51 -120 4 -49 1 -58 -36 -113 -45 -67 -132 -161
-206 -222 l-49 -41 68 -45 68 -46 31 25 c77 63 251 245 287 299 51 78 64 125
48 173 -16 48 -74 134 -141 207 -65 71 -216 205 -232 205 -6 0 -36 -16 -66
-36z m137 -65 c32 -28 69 -63 83 -78 141 -148 185 -215 183 -276 -2 -62 -52
-135 -184 -267 -77 -77 -135 -128 -147 -128 -11 0 -30 8 -42 18 l-22 18 67 64
c37 36 83 88 103 115 20 28 42 56 48 62 7 7 20 33 29 58 36 92 -5 183 -148
332 -95 98 -99 104 -81 118 31 24 51 17 111 -36z"></path></g>
<!--animateTransform attributeName="transform" begin="0s" dur="10s" type="rotate" from="0 0 0" to="360 0 0" repeatCount="indefinite"></animateTransform-->
</svg>
